<svg width="32" height="12" viewBox="0 0 32 12" fill="none" xmlns="http://www.w3.org/2000/svg">
<path d="M11.432 2.632H12.074V6.586H13.91V7H11.516V3.028L11.432 2.632ZM15.672 7.078C15.38 7.078 15.134 7.006 14.934 6.862C14.738 6.714 14.59 6.522 14.49 6.286C14.394 6.05 14.346 5.798 14.346 5.53C14.346 5.262 14.398 5.008 14.502 4.768C14.61 4.524 14.766 4.326 14.97 4.174C15.174 4.022 15.42 3.946 15.708 3.946C16.004 3.946 16.25 4.018 16.446 4.162C16.646 4.306 16.794 4.496 16.89 4.732C16.99 4.968 17.04 5.222 17.04 5.494C17.04 5.766 16.988 6.024 16.884 6.268C16.78 6.508 16.626 6.704 16.422 6.856C16.218 7.004 15.968 7.078 15.672 7.078ZM15.678 6.7C15.834 6.7 15.964 6.664 16.068 6.592C16.176 6.516 16.262 6.418 16.326 6.298C16.394 6.178 16.442 6.05 16.47 5.914C16.498 5.774 16.512 5.64 16.512 5.512C16.512 5.38 16.498 5.246 16.47 5.11C16.446 4.97 16.404 4.842 16.344 4.726C16.284 4.606 16.2 4.51 16.092 4.438C15.988 4.362 15.858 4.324 15.702 4.324C15.546 4.324 15.414 4.362 15.306 4.438C15.202 4.51 15.118 4.606 15.054 4.726C14.99 4.846 14.944 4.976 14.916 5.116C14.888 5.252 14.874 5.384 14.874 5.512C14.874 5.636 14.888 5.768 14.916 5.908C14.944 6.044 14.988 6.172 15.048 6.292C15.112 6.412 15.196 6.51 15.3 6.586C15.404 6.662 15.53 6.7 15.678 6.7ZM18.9487 3.946C19.1007 3.946 19.2527 3.972 19.4047 4.024C19.5607 4.072 19.7127 4.148 19.8607 4.252L19.5907 4.6C19.4787 4.508 19.3687 4.442 19.2607 4.402C19.1527 4.358 19.0487 4.336 18.9487 4.336C18.7887 4.336 18.6447 4.384 18.5167 4.48C18.3887 4.576 18.2867 4.712 18.2107 4.888C18.1387 5.064 18.1027 5.27 18.1027 5.506C18.1027 5.882 18.1867 6.17 18.3547 6.37C18.5267 6.57 18.7427 6.67 19.0027 6.67C19.1187 6.67 19.2307 6.652 19.3387 6.616C19.4507 6.58 19.5667 6.528 19.6867 6.46L19.8487 6.778C19.6887 6.878 19.5347 6.952 19.3867 7C19.2387 7.052 19.0727 7.078 18.8887 7.078C18.6327 7.078 18.4047 7.014 18.2047 6.886C18.0087 6.754 17.8527 6.568 17.7367 6.328C17.6247 6.088 17.5687 5.806 17.5687 5.482C17.5687 5.17 17.6307 4.9 17.7547 4.672C17.8827 4.44 18.0507 4.262 18.2587 4.138C18.4707 4.01 18.7007 3.946 18.9487 3.946ZM23.2099 4.936H21.0859V7H20.5279V3.028C20.5279 3.024 20.5199 2.992 20.5039 2.932C20.4919 2.872 20.4799 2.81 20.4679 2.746C20.4559 2.682 20.4479 2.644 20.4439 2.632H21.0859V4.528H23.2099V2.632H23.7679V7H23.2099V4.936ZM25.8791 7.078C25.5871 7.078 25.3411 7.006 25.1411 6.862C24.9451 6.714 24.7971 6.522 24.6971 6.286C24.6011 6.05 24.5531 5.798 24.5531 5.53C24.5531 5.262 24.6051 5.008 24.7091 4.768C24.8171 4.524 24.9731 4.326 25.1771 4.174C25.3811 4.022 25.6271 3.946 25.9151 3.946C26.2111 3.946 26.4571 4.018 26.6531 4.162C26.8531 4.306 27.0011 4.496 27.0971 4.732C27.1971 4.968 27.2471 5.222 27.2471 5.494C27.2471 5.766 27.1951 6.024 27.0911 6.268C26.9871 6.508 26.8331 6.704 26.6291 6.856C26.4251 7.004 26.1751 7.078 25.8791 7.078ZM25.8851 6.7C26.0411 6.7 26.1711 6.664 26.2751 6.592C26.3831 6.516 26.4691 6.418 26.5331 6.298C26.6011 6.178 26.6491 6.05 26.6771 5.914C26.7051 5.774 26.7191 5.64 26.7191 5.512C26.7191 5.38 26.7051 5.246 26.6771 5.11C26.6531 4.97 26.6111 4.842 26.5511 4.726C26.4911 4.606 26.4071 4.51 26.2991 4.438C26.1951 4.362 26.0651 4.324 25.9091 4.324C25.7531 4.324 25.6211 4.362 25.5131 4.438C25.4091 4.51 25.3251 4.606 25.2611 4.726C25.1971 4.846 25.1511 4.976 25.1231 5.116C25.0951 5.252 25.0811 5.384 25.0811 5.512C25.0811 5.636 25.0951 5.768 25.1231 5.908C25.1511 6.044 25.1951 6.172 25.2551 6.292C25.3191 6.412 25.4031 6.51 25.5071 6.586C25.6111 6.662 25.7371 6.7 25.8851 6.7ZM28.9757 3.946C29.1117 3.946 29.2457 3.964 29.3777 4C29.5137 4.032 29.6377 4.084 29.7497 4.156L29.5757 4.54C29.4877 4.468 29.3897 4.414 29.2817 4.378C29.1737 4.342 29.0677 4.324 28.9637 4.324C28.8157 4.324 28.6857 4.358 28.5737 4.426C28.4657 4.494 28.4117 4.596 28.4117 4.732C28.4117 4.88 28.4597 4.99 28.5557 5.062C28.6557 5.134 28.7737 5.202 28.9097 5.266C29.0417 5.326 29.1737 5.394 29.3057 5.47C29.4417 5.542 29.5557 5.636 29.6477 5.752C29.7397 5.864 29.7857 6.016 29.7857 6.208C29.7857 6.408 29.7357 6.574 29.6357 6.706C29.5397 6.834 29.4117 6.928 29.2517 6.988C29.0957 7.048 28.9257 7.078 28.7417 7.078C28.5817 7.078 28.4217 7.056 28.2617 7.012C28.1017 6.968 27.9537 6.906 27.8177 6.826L28.0277 6.46C28.1237 6.532 28.2317 6.59 28.3517 6.634C28.4717 6.678 28.5877 6.7 28.6997 6.7C28.8517 6.7 28.9837 6.664 29.0957 6.592C29.2117 6.52 29.2697 6.412 29.2697 6.268C29.2697 6.168 29.2377 6.086 29.1737 6.022C29.1137 5.954 29.0357 5.894 28.9397 5.842C28.8437 5.79 28.7437 5.74 28.6397 5.692C28.5197 5.632 28.4017 5.568 28.2857 5.5C28.1737 5.428 28.0817 5.338 28.0097 5.23C27.9377 5.122 27.9017 4.984 27.9017 4.816C27.9017 4.624 27.9517 4.464 28.0517 4.336C28.1557 4.208 28.2897 4.112 28.4537 4.048C28.6177 3.98 28.7917 3.946 28.9757 3.946ZM31.2718 3.166C31.2438 3.302 31.2178 3.444 31.1938 3.592C31.1738 3.736 31.1598 3.878 31.1518 4.018H31.9318L31.8298 4.396H31.1518V6.304C31.1518 6.42 31.1718 6.512 31.2118 6.58C31.2558 6.648 31.3418 6.682 31.4698 6.682C31.5338 6.682 31.5978 6.676 31.6618 6.664C31.7258 6.652 31.7878 6.638 31.8478 6.622L31.9318 6.958C31.8318 6.986 31.7358 7.01 31.6438 7.03C31.5558 7.054 31.4538 7.066 31.3378 7.066C31.0818 7.066 30.9038 6.998 30.8038 6.862C30.7038 6.726 30.6538 6.536 30.6538 6.292V4.396H30.2098V4.096C30.3698 4.092 30.4958 4.04 30.5878 3.94C30.6798 3.836 30.7498 3.712 30.7978 3.568C30.8458 3.424 30.8818 3.29 30.9058 3.166H31.2718Z" fill="black"/>
<path d="M6.21855 9.49892C3.66456 9.94831 1.782 7.16445 3.15019 4.96152L4.3827 2.97703C5.52961 1.13038 8.19858 1.07856 9.4163 2.8793L10.4845 4.45895C11.7023 6.25969 10.6602 8.71738 8.51928 9.09409L6.21855 9.49892Z" fill="#FF5151" fill-opacity="0.84"/>
<path d="M6.21855 9.49892C3.66456 9.94831 1.782 7.16445 3.15019 4.96152L4.3827 2.97703C5.52961 1.13038 8.19858 1.07856 9.4163 2.8793L10.4845 4.45895C11.7023 6.25969 10.6602 8.71738 8.51928 9.09409L6.21855 9.49892Z" stroke="black"/>
</svg>
